<svg xmlns="http://www.w3.org/2000/svg" viewBox="0 0 1200 750" role="img" aria-labelledby="title desc">
  <title id="title">Audit board placeholder</title>
  <desc id="desc">Illustrated audit board with charts, checklist, and highlighted findings.</desc>
  <defs>
    <linearGradient id="bg" x1="0%" y1="0%" x2="100%" y2="100%">
      <stop offset="0%" stop-color="#f6f8ff" />
      <stop offset="100%" stop-color="#dbe7ff" />
    </linearGradient>
  </defs>
  <rect width="1200" height="750" fill="url(#bg)" rx="36" />
  <rect x="96" y="92" width="1008" height="566" rx="36" fill="#ffffff" />
  <rect x="96" y="92" width="1008" height="566" rx="36" fill="none" stroke="#2f6df6" stroke-opacity="0.12" stroke-width="4" />
  <rect x="152" y="152" width="316" height="420" rx="28" fill="#07142f" />
  <rect x="520" y="152" width="528" height="170" rx="28" fill="#2f6df6" />
  <rect x="520" y="362" width="244" height="210" rx="28" fill="#ffffff" stroke="#2f6df6" stroke-opacity="0.15" stroke-width="4" />
  <rect x="804" y="362" width="244" height="210" rx="28" fill="#ffffff" stroke="#2f6df6" stroke-opacity="0.15" stroke-width="4" />
  <rect x="190" y="204" width="156" height="18" rx="9" fill="#ffffff" opacity="0.72" />
  <rect x="190" y="254" width="188" height="14" rx="7" fill="#ffffff" opacity="0.28" />
  <rect x="190" y="312" width="32" height="32" rx="8" fill="#ffd02f" />
  <rect x="246" y="320" width="146" height="16" rx="8" fill="#ffffff" opacity="0.78" />
  <rect x="190" y="376" width="32" height="32" rx="8" fill="#ffd02f" />
  <rect x="246" y="384" width="118" height="16" rx="8" fill="#ffffff" opacity="0.78" />
  <rect x="190" y="440" width="32" height="32" rx="8" fill="#ffd02f" />
  <rect x="246" y="448" width="132" height="16" rx="8" fill="#ffffff" opacity="0.78" />
  <circle cx="942" cy="223" r="44" fill="#ffd02f" />
  <path d="M922 223l14 14 26-34" fill="none" stroke="#07142f" stroke-width="10" stroke-linecap="round" stroke-linejoin="round" />
  <rect x="560" y="404" width="64" height="120" rx="18" fill="#2f6df6" />
  <rect x="646" y="446" width="64" height="78" rx="18" fill="#ffd02f" />
  <rect x="844" y="420" width="164" height="18" rx="9" fill="#07142f" opacity="0.86" />
  <rect x="844" y="462" width="122" height="14" rx="7" fill="#697488" opacity="0.66" />
  <rect x="844" y="496" width="144" height="14" rx="7" fill="#697488" opacity="0.42" />
  <text x="560" y="222" fill="#ffffff" font-family="Segoe UI, Arial, sans-serif" font-size="44" font-weight="700">
    Audit Board
  </text>
  <text x="560" y="262" fill="#dbe7ff" font-family="Segoe UI, Arial, sans-serif" font-size="24">
    Findings, checklists, and technical review summary
  </text>
</svg>
