<svg xmlns="http://www.w3.org/2000/svg" viewBox="0 0 1200 750" role="img" aria-labelledby="title desc">
  <title id="title">Frontend system placeholder</title>
  <desc id="desc">Abstract interface card showing frontend design and development layers.</desc>
  <defs>
    <linearGradient id="bg" x1="0%" y1="0%" x2="100%" y2="100%">
      <stop offset="0%" stop-color="#07142f" />
      <stop offset="100%" stop-color="#2f6df6" />
    </linearGradient>
    <linearGradient id="panel" x1="0%" y1="0%" x2="100%" y2="100%">
      <stop offset="0%" stop-color="#ffffff" stop-opacity="0.98" />
      <stop offset="100%" stop-color="#dbe7ff" stop-opacity="0.92" />
    </linearGradient>
  </defs>
  <rect width="1200" height="750" fill="url(#bg)" rx="36" />
  <circle cx="178" cy="128" r="120" fill="#ffd02f" opacity="0.16" />
  <circle cx="1040" cy="110" r="150" fill="#ffffff" opacity="0.08" />
  <rect x="110" y="120" width="980" height="510" rx="34" fill="url(#panel)" />
  <rect x="150" y="164" width="280" height="26" rx="13" fill="#2f6df6" opacity="0.9" />
  <rect x="150" y="214" width="420" height="18" rx="9" fill="#697488" opacity="0.55" />
  <rect x="150" y="284" width="280" height="230" rx="24" fill="#07142f" opacity="0.96" />
  <rect x="470" y="284" width="580" height="96" rx="24" fill="#ffd02f" opacity="0.95" />
  <rect x="470" y="410" width="270" height="104" rx="24" fill="#dbe7ff" />
  <rect x="780" y="410" width="270" height="104" rx="24" fill="#dbe7ff" />
  <rect x="174" y="328" width="118" height="16" rx="8" fill="#ffffff" opacity="0.72" />
  <rect x="174" y="362" width="82" height="58" rx="16" fill="#ffd02f" />
  <rect x="302" y="362" width="82" height="58" rx="16" fill="#2f6df6" />
  <rect x="174" y="446" width="210" height="14" rx="7" fill="#ffffff" opacity="0.42" />
  <rect x="174" y="478" width="176" height="14" rx="7" fill="#ffffff" opacity="0.26" />
  <text x="470" y="216" fill="#07142f" font-family="Segoe UI, Arial, sans-serif" font-size="44" font-weight="700">
    Frontend System
  </text>
  <text x="470" y="254" fill="#51607a" font-family="Segoe UI, Arial, sans-serif" font-size="24">
    UI flows, dashboards, and polished interface structure
  </text>
</svg>
