<svg xmlns="http://www.w3.org/2000/svg" viewBox="0 0 1200 750" role="img" aria-labelledby="title desc">
  <title id="title">Research notes placeholder</title>
  <desc id="desc">Notebook-style research board with notes, highlights, and concept mapping.</desc>
  <defs>
    <linearGradient id="bg" x1="0%" y1="0%" x2="100%" y2="100%">
      <stop offset="0%" stop-color="#fff8dd" />
      <stop offset="100%" stop-color="#f6f8ff" />
    </linearGradient>
  </defs>
  <rect width="1200" height="750" fill="url(#bg)" rx="36" />
  <rect x="126" y="90" width="948" height="570" rx="34" fill="#ffffff" />
  <rect x="126" y="90" width="948" height="570" rx="34" fill="none" stroke="#ffd02f" stroke-opacity="0.45" stroke-width="6" />
  <rect x="182" y="138" width="280" height="186" rx="24" fill="#ffd02f" fill-opacity="0.42" />
  <rect x="498" y="138" width="520" height="120" rx="24" fill="#07142f" />
  <rect x="498" y="290" width="242" height="278" rx="24" fill="#dbe7ff" />
  <rect x="776" y="290" width="242" height="278" rx="24" fill="#2f6df6" fill-opacity="0.12" />
  <path d="M216 188h150M216 226h188M216 264h164" stroke="#07142f" stroke-width="16" stroke-linecap="round" opacity="0.82" />
  <circle cx="876" cy="188" r="34" fill="#ffd02f" />
  <circle cx="942" cy="188" r="34" fill="#2f6df6" opacity="0.9" />
  <circle cx="810" cy="188" r="34" fill="#ffffff" opacity="0.32" />
  <path d="M550 344h138M550 382h102M550 420h150M550 458h90" stroke="#07142f" stroke-width="14" stroke-linecap="round" opacity="0.8" />
  <path d="M828 354h138M828 392h102M828 430h150M828 468h90" stroke="#07142f" stroke-width="14" stroke-linecap="round" opacity="0.8" />
  <path d="M700 514c34-62 88-96 160-96" fill="none" stroke="#2f6df6" stroke-width="10" stroke-linecap="round" />
  <path d="M702 514c-44-56-108-84-186-84" fill="none" stroke="#ffd02f" stroke-width="10" stroke-linecap="round" />
  <text x="530" y="194" fill="#ffffff" font-family="Segoe UI, Arial, sans-serif" font-size="44" font-weight="700">
    Research Notes
  </text>
  <text x="530" y="234" fill="#dbe7ff" font-family="Segoe UI, Arial, sans-serif" font-size="24">
    Discovery insights, workflow mapping, and supporting references
  </text>
</svg>
